# xmcd
#
# Track frame offsets: 
#        183
#        10428
#        26390
#        40288
#        53863
#        67808
#        80970
#        94605
#        105905
#        119505
#        132208
#        145595
#        160333
#        170915
#        184488
#        199955
#        219463
#        235035
#
# Disc length: 3351 seconds
#
# Revision: 0
# Processed by: cddbd v1.5.2PL0 Copyright (c) Steve Scherf et al.
# Submitted via: ExactAudioCopy v0.99pb4
#
DISCID=fd0d1512
DTITLE=許\冠傑 - 許\冠傑精選
DYEAR=1900
DGENRE=Pop
TTITLE0=最佳拍檔
TTITLE1=難忘你
TTITLE2=鐵塔凌雲
TTITLE3=雙星情歌
TTITLE4=浪子心聲
TTITLE5=跟佢\做個Friend
TTITLE6=夜夜念奴嬌
TTITLE7=天才白癡夢
TTITLE8=天才白癡往日情
TTITLE9=杯酒當歌
TTITLE10=知音夢裡尋
TTITLE11=腐朽化神奇
TTITLE12=半斤八兩
TTITLE13=世事如棋
TTITLE14=印象
TTITLE15=是雨是淚\
TTITLE16=我的心仍屬于你
TTITLE17=紙船
EXTD=
EXTT0=
EXTT1=
EXTT2=
EXTT3=
EXTT4=
EXTT5=
EXTT6=
EXTT7=
EXTT8=
EXTT9=
EXTT10=
EXTT11=
EXTT12=
EXTT13=
EXTT14=
EXTT15=
EXTT16=
EXTT17=
PLAYORDER=
